# xmcd CD database file
#
# Track frame offsets:
#	150
#	17024
#	30116
#	42255
#	58025
#	74839
#	89283
#	106079
#	122407
#	138295
#	152071
#	165491
#	181008
#	194040
#	210718
#
# Disc length: 2997 seconds
#
# Revision: 1
# Processed by: cddbd v1.5.1PL0 Copyright (c) Steve Scherf et al.
# Submitted via: CDex 1.51
#
DISCID=c20bb30f
DTITLE=陳思安 - 冬戀
DYEAR=2003
DGENRE=New Age
TTITLE0=冬戀
TTITLE1=多少柔情多少淚
TTITLE2=對你懷念特別多
TTITLE3=不如歸去
TTITLE4=秋的懷念
TTITLE5=明日天涯
TTITLE6=只要你記得
TTITLE7=桃李掙春
TTITLE8=一顆情淚
TTITLE9=珊瑚戀
TTITLE10=母親你在何方
TTITLE11=煙雨斜陽
TTITLE12=送君
TTITLE13=萍水相逢的人
TTITLE14=想你想斷腸
EXTD=YEAR: 2003
EXTT0=
EXTT1=
EXTT2=
EXTT3=
EXTT4=
EXTT5=
EXTT6=
EXTT7=
EXTT8=
EXTT9=
EXTT10=
EXTT11=
EXTT12=
EXTT13=
EXTT14=
PLAYORDER=
